<svg xmlns="http://www.w3.org/2000/svg" version="1.0" width="1024.000000pt" height="1024.000000pt" viewBox="0 0 1024.000000 1024.000000" preserveAspectRatio="xMidYMid meet">

<g transform="translate(0.000000,1024.000000) scale(0.100000,-0.100000)" fill="#b8dff5" stroke="none">
<path d="M1255 9531 c-56 -10 -99 -35 -147 -84 -88 -91 -96 -132 -62 -342 23 -149 37 -225 50 -277 8 -34 -2 -35 -37 -5 -24 20 -27 30 -33 129 -3 60 -10 116 -15 125 -6 10 -17 35 -27 55 -57 131 -236 201 -375 149 -72 -27 -142 -89 -177 -155 -26 -49 -27 -58 -27 -198 0 -143 0 -146 -20 -135 -32 18 -126 25 -180 15 -145 -29 -218 -144 -195 -306 6 -42 16 -106 21 -142 5 -36 12 -90 17 -120 10 -71 6 -89 -24 -100 l-24 -10 0 -263 0 -264 39 -7 c56 -9 71 -28 71 -90 0 -89 28 -227 60 -292 55 -112 157 -178 278 -177 70 0 180 54 201 98 8 17 20 42 28 57 7 14 14 37 14 50 3 50 20 -74 28 -203 7 -122 11 -142 38 -195 37 -72 102 -125 192 -155 77 -26 141 -22 221 14 154 69 176 113 167 336 -3 80 -8 157 -11 171 -2 14 -10 68 -16 120 -6 52 -15 120 -20 150 -14 84 -27 200 -34 305 l-4 70 11 -57 c7 -31 15 -60 20 -64 4 -4 7 -27 7 -51 0 -43 22 -202 40 -293 5 -25 11 -74 15 -110 3 -36 15 -110 26 -165 12 -55 27 -138 34 -185 8 -47 19 -116 26 -155 26 -161 134 -270 285 -290 147 -20 291 61 364 205 21 41 22 54 17 145 -3 55 -15 147 -27 205 -35 182 -48 252 -65 350 -14 82 -28 160 -59 330 -10 52 2 62 90 71 112 11 216 27 239 35 11 4 34 19 50 32 40 34 121 69 178 77 44 7 120 -12 154 -37 12 -10 288 14 383 32 68 13 275 37 475 55 83 7 206 20 275 29 594 76 1837 71 2470 -9 63 -8 174 -19 245 -25 130 -11 374 -40 495 -59 143 -22 252 -24 307 -6 102 34 228 9 303 -60 22 -19 49 -25 205 -44 99 -12 211 -26 249 -32 l68 -11 -5 -37 c-3 -20 -15 -88 -27 -151 -11 -63 -30 -176 -41 -250 -11 -74 -27 -166 -35 -205 -66 -326 -67 -380 -11 -472 57 -93 108 -132 212 -159 70 -19 112 -17 190 7 55 17 78 31 120 72 76 77 103 144 126 306 10 75 23 161 30 191 6 30 15 73 19 95 4 22 8 30 9 18 0 -12 5 -24 10 -27 5 -3 7 -60 4 -127 -5 -157 9 -212 70 -264 135 -117 291 -122 442 -13 81 57 116 153 116 321 0 136 7 144 63 68 50 -68 114 -96 222 -96 70 0 88 4 140 30 47 24 67 43 100 91 35 52 42 73 57 164 9 58 17 139 17 180 0 42 5 81 10 86 6 6 30 8 63 3 28 -4 87 -8 130 -8 l77 -1 0 254 0 254 -27 6 c-16 3 -57 11 -93 17 -36 7 -71 17 -79 23 -15 12 -15 14 24 276 30 201 28 221 -37 295 -60 68 -127 96 -247 102 -55 3 -104 9 -111 13 -8 5 -8 19 -1 51 6 24 11 73 11 108 0 53 -6 76 -35 136 -30 60 -45 79 -89 108 -65 43 -133 67 -191 67 -51 0 -166 -39 -197 -66 -41 -37 -70 -96 -79 -163 -5 -36 -21 -136 -35 -221 -13 -85 -29 -185 -35 -222 -6 -36 -18 -92 -28 -125 -16 -52 -20 -58 -42 -55 -13 2 -27 7 -30 10 -4 4 2 61 12 127 11 66 26 184 34 262 9 78 20 154 25 168 32 85 60 294 46 350 -11 42 -90 120 -149 146 -70 31 -223 34 -277 5 -52 -28 -138 -104 -156 -138 -25 -49 -54 -147 -69 -238 -8 -47 -21 -119 -29 -160 -8 -41 -22 -113 -30 -160 -9 -47 -31 -166 -50 -265 -19 -99 -37 -204 -41 -232 -6 -48 -9 -53 -31 -53 -55 0 -224 22 -309 40 -103 21 -194 34 -350 50 -60 6 -146 18 -190 25 -44 8 -127 19 -185 25 -58 6 -143 15 -190 20 -47 5 -159 17 -250 26 -91 9 -167 17 -170 19 -3 2 -77 8 -165 14 -88 6 -250 18 -360 26 -746 56 -1626 54 -2210 -5 -104 -11 -214 -19 -244 -19 -30 0 -116 -7 -190 -15 -163 -19 -385 -43 -576 -61 -77 -8 -180 -21 -230 -29 -49 -8 -126 -19 -170 -25 -44 -6 -182 -25 -307 -42 -125 -17 -234 -29 -242 -26 -8 3 -18 23 -21 44 -4 21 -20 103 -36 183 -16 80 -35 181 -43 225 -8 44 -22 112 -30 150 -8 39 -24 129 -35 200 -34 221 -65 296 -153 370 -71 60 -187 86 -293 66z m-140 -831 c3 -5 -1 -10 -9 -10 -9 0 -16 5 -16 10 0 6 4 10 9 10 6 0 13 -4 16 -10z m132 -817 c-3 -10 -5 -2 -5 17 0 19 2 27 5 18 2 -10 2 -26 0 -35z" fill="#b8dff5"/>
<path d="M4765 7730 c-205 -18 -467 -86 -638 -164 -77 -35 -206 -110 -259 -150 -14 -12 -56 -43 -92 -71 -72 -55 -301 -290 -342 -351 -14 -22 -36 -50 -48 -64 -35 -39 -188 -258 -231 -330 -21 -36 -40 -67 -42 -69 -10 -13 -26 25 -44 100 -23 97 -54 218 -77 304 -24 86 -22 172 4 210 32 47 53 107 44 131 -31 81 -276 94 -561 29 -137 -32 -294 -103 -312 -143 -11 -23 -7 -29 50 -82 l62 -57 20 -134 c11 -74 29 -186 41 -249 12 -63 32 -176 45 -250 13 -74 35 -200 49 -279 14 -79 26 -150 26 -158 0 -7 -21 -23 -47 -33 -27 -11 -61 -27 -76 -36 -16 -9 -52 -22 -80 -30 -29 -7 -95 -25 -147 -39 -60 -17 -133 -29 -198 -32 -85 -5 -102 -9 -102 -22 0 -27 34 -134 109 -346 39 -110 79 -234 90 -275 10 -41 26 -101 36 -133 9 -32 14 -64 12 -71 -3 -8 -27 -16 -54 -20 -134 -19 -299 -49 -306 -56 -5 -4 20 -44 55 -90 154 -200 155 -218 17 -235 -39 -5 -64 -2 -92 9 l-37 16 0 -47 c0 -129 151 -287 321 -337 81 -24 131 -13 188 44 64 64 142 93 234 88 l67 -4 0 46 c1 75 10 202 16 211 10 17 36 9 142 -46 124 -63 175 -76 187 -48 4 10 10 115 12 235 l6 216 26 6 c14 3 121 31 236 61 193 51 386 98 460 111 135 24 253 45 325 59 92 17 401 49 625 65 77 5 284 10 460 9 l320 0 -35 -30 c-19 -17 -69 -54 -111 -82 -42 -29 -148 -101 -235 -160 -87 -59 -197 -135 -244 -168 -47 -33 -123 -85 -170 -115 -47 -31 -91 -63 -97 -72 -11 -14 -17 -11 -47 24 -35 41 -139 108 -216 138 -58 24 -243 33 -321 17 -92 -19 -171 -63 -252 -141 -125 -118 -173 -233 -178 -427 -2 -86 -1 -85 -134 -130 -49 -17 -173 -65 -274 -107 -101 -41 -200 -78 -220 -82 -20 -4 -48 -13 -63 -21 -15 -7 -31 -14 -35 -16 -15 -4 -3 -35 43 -113 26 -43 69 -120 95 -171 97 -183 101 -188 142 -185 21 2 37 -2 37 -8 0 -5 7 -10 15 -10 8 0 15 -6 15 -13 0 -7 62 -76 138 -153 143 -146 283 -258 452 -360 126 -76 180 -116 180 -132 0 -9 -8 -29 -18 -43 -9 -15 -29 -44 -43 -65 -28 -42 -109 -279 -129 -378 -7 -33 -18 -98 -25 -145 -13 -83 -13 -87 7 -101 62 -46 80 -69 72 -92 -4 -13 -6 -45 -5 -71 2 -44 -3 -54 -51 -120 -29 -39 -72 -93 -94 -118 -55 -62 -92 -142 -103 -226 -6 -37 -10 -191 -11 -341 l0 -273 28 -29 c35 -35 137 -67 252 -80 47 -5 141 -16 210 -23 202 -22 436 2 565 58 103 45 126 58 143 82 29 41 49 94 57 152 8 59 11 60 115 57 36 -1 181 -3 323 -4 l257 -2 0 -32 c0 -39 16 -100 37 -146 16 -34 88 -77 205 -122 70 -27 264 -60 354 -60 171 0 521 55 582 92 64 39 64 38 63 345 -1 153 -6 306 -11 341 -16 98 -51 163 -137 257 -42 47 -81 93 -87 102 -5 9 -15 58 -23 108 -15 100 -16 98 56 137 29 16 31 20 25 60 -19 138 -60 324 -89 413 -4 11 -34 75 -68 143 l-60 122 24 26 c13 14 60 50 104 78 44 29 91 60 105 70 14 9 43 28 65 42 99 66 187 139 265 221 93 97 180 197 180 206 0 3 20 38 45 78 25 40 43 74 41 76 -2 2 -38 -17 -81 -43 -90 -55 -323 -155 -475 -203 -30 -10 -91 -32 -135 -48 -44 -17 -111 -40 -150 -51 -143 -43 -210 -66 -221 -74 -6 -4 -33 -10 -60 -13 -60 -5 -138 -21 -162 -33 -34 -18 -241 -35 -345 -28 -82 6 -106 4 -122 -8 -20 -15 -20 -15 0 -29 26 -20 98 -32 103 -17 6 17 37 11 67 -12 26 -20 27 -24 21 -79 -4 -33 -3 -60 3 -63 17 -11 -1 -45 -32 -61 -16 -8 -45 -15 -63 -15 -42 0 -124 35 -146 63 -20 25 -23 88 -6 120 10 20 10 21 -5 8 -9 -7 -19 -29 -22 -50 -4 -20 -17 -84 -31 -142 -13 -58 -24 -110 -24 -116 0 -6 21 -13 46 -17 81 -11 128 -38 153 -88 11 -24 21 -55 21 -69 0 -48 -58 -102 -122 -114 -39 -7 -47 -1 -131 94 -28 32 -51 39 -62 20 -4 -5 -18 -15 -32 -20 -21 -8 -30 -6 -50 13 l-24 22 -25 -27 c-14 -15 -29 -27 -34 -27 -5 0 -26 -18 -46 -40 -49 -53 -90 -55 -139 -7 -40 39 -51 74 -36 120 23 68 101 117 189 117 24 0 32 4 32 18 0 36 -21 138 -42 207 l-22 70 -8 -40 c-16 -75 -86 -121 -167 -109 -60 9 -78 19 -101 57 -30 48 -26 110 8 146 35 37 64 51 101 51 41 0 81 -17 113 -47 28 -27 47 -27 31 0 -4 8 -24 27 -42 43 -35 29 -36 29 -170 29 -140 0 -268 12 -286 25 -5 5 -44 12 -85 15 -41 4 -79 11 -85 15 -5 4 -44 15 -85 24 -107 25 -248 69 -455 143 -190 68 -213 77 -285 118 -25 14 -71 40 -103 57 -68 37 -71 32 72 88 96 38 185 79 251 117 19 11 72 39 118 62 71 38 86 42 110 33 15 -6 59 -18 97 -27 204 -49 493 64 575 225 10 20 25 41 32 48 8 6 25 40 38 75 20 52 29 64 46 64 25 0 101 38 172 84 78 52 138 88 189 116 26 13 64 38 84 54 20 16 39 29 42 29 6 0 90 54 234 151 57 38 107 69 113 69 5 0 10 4 10 9 0 4 28 28 63 52 54 38 150 108 227 167 27 21 192 135 300 208 36 24 81 58 101 75 37 31 38 31 100 20 35 -5 107 -17 159 -26 104 -17 162 -30 350 -76 69 -18 152 -38 186 -45 85 -19 246 -62 252 -68 2 -3 6 -88 7 -188 3 -170 9 -261 21 -280 3 -4 23 1 45 12 73 38 200 80 239 80 57 0 66 -22 44 -112 -23 -94 -18 -101 77 -109 101 -7 139 -29 217 -124 18 -22 31 -33 30 -25 -2 11 4 14 22 12 36 -4 47 -19 81 -108 17 -43 45 -118 63 -166 38 -100 118 -213 178 -253 52 -34 136 -45 172 -22 41 27 78 84 78 119 0 46 -25 115 -88 243 -30 60 -54 116 -54 125 0 15 23 18 193 23 206 7 304 25 396 72 62 31 74 47 74 101 0 119 -107 166 -418 184 -215 12 -345 29 -352 46 -4 10 -24 14 -69 14 -92 0 -94 16 -12 90 42 38 78 82 102 127 21 37 45 80 54 95 21 34 11 44 -28 28 -47 -19 -227 5 -259 36 -19 17 -8 59 113 424 36 107 78 238 95 290 16 53 33 103 36 111 5 14 -9 17 -102 22 -109 5 -193 21 -313 58 -36 11 -89 28 -118 37 -29 9 -57 21 -62 27 -5 6 1 56 14 120 13 61 27 139 31 175 4 36 13 94 20 130 7 36 25 144 40 240 14 96 32 213 40 260 8 47 18 111 21 143 6 52 10 60 33 68 26 9 71 81 71 112 0 16 -47 67 -62 67 -6 0 -19 6 -27 14 -30 26 -245 83 -381 100 -25 3 -99 7 -165 7 -107 2 -125 -1 -165 -21 -53 -26 -60 -35 -60 -73 0 -34 14 -62 48 -95 23 -24 24 -29 19 -111 -12 -164 -99 -651 -117 -651 -9 0 -140 174 -140 186 0 10 -128 203 -152 229 -10 11 -59 76 -110 145 -95 129 -336 385 -398 423 -19 11 -57 38 -85 58 -170 126 -389 214 -685 273 -141 28 -397 41 -555 26z m323 -379 c119 -26 163 -49 245 -130 67 -65 129 -171 144 -243 7 -35 11 -35 57 0 19 15 58 44 85 64 59 46 96 115 87 167 -8 49 -21 59 -44 31 -19 -23 -42 -21 -42 5 0 7 21 32 46 54 39 34 54 41 88 41 101 -2 235 -121 222 -199 -4 -29 -3 -32 14 -28 26 7 32 -12 38 -133 5 -102 4 -104 -14 -90 -10 8 -25 22 -32 30 -11 13 -12 12 -10 -5 3 -18 -3 -20 -72 -21 -52 -1 -99 -10 -154 -28 -43 -15 -93 -26 -110 -24 -25 2 -32 -1 -34 -18 -2 -17 -10 -20 -57 -20 -45 1 -58 -3 -82 -26 -16 -16 -34 -28 -41 -28 -7 0 -12 -9 -12 -20 0 -14 -7 -20 -21 -20 -12 0 -36 -15 -53 -32 -33 -33 -33 -34 -39 -158 -5 -105 -9 -133 -29 -170 -28 -54 -51 -61 -87 -26 l-28 26 -11 -25 c-7 -15 -16 -24 -21 -21 -5 3 -11 -3 -14 -13 -3 -12 -18 -21 -43 -26 -21 -3 -51 -13 -66 -21 -17 -9 -29 -10 -33 -4 -3 6 -24 10 -45 10 -48 0 -84 13 -122 45 -16 14 -34 23 -39 19 -5 -3 -9 0 -9 7 0 7 -7 21 -17 31 -16 17 -17 17 -35 -13 -13 -21 -23 -28 -29 -22 -12 12 -29 74 -34 118 -1 17 -8 43 -14 59 -7 18 -8 33 -2 40 26 31 -43 171 -99 200 -225 116 -253 128 -289 124 -26 -4 -44 1 -66 18 -50 37 -118 54 -215 54 l-90 0 0 26 c0 14 16 54 35 89 20 34 42 86 51 114 22 76 112 165 174 174 25 4 55 9 67 13 52 14 100 -89 54 -117 -16 -11 -17 -16 -6 -53 7 -23 16 -49 20 -58 6 -14 2 -18 -19 -18 -19 0 -26 -5 -26 -18 0 -26 10 -33 32 -21 15 8 31 3 76 -22 31 -18 75 -47 96 -66 21 -18 42 -30 46 -28 4 3 10 28 12 57 7 77 39 134 121 217 77 77 96 87 231 125 105 30 154 31 264 7z m-828 -153 c0 -12 -3 -18 -7 -14 -11 10 -12 36 -2 36 5 0 9 -10 9 -22z m-30 -363 c11 -13 10 -14 -4 -9 -9 3 -16 10 -16 15 0 13 6 11 20 -6z m68 -53 c2 -7 -2 -10 -12 -6 -9 3 -16 11 -16 16 0 13 23 5 28 -10z m442 -463 c0 -5 -4 -9 -10 -9 -5 0 -10 7 -10 16 0 8 5 12 10 9 6 -3 10 -10 10 -16z m670 1 c0 -5 -7 -10 -16 -10 -8 0 -12 5 -9 10 3 6 10 10 16 10 5 0 9 -4 9 -10z m-860 -24 c51 -19 94 -93 94 -164 0 -66 -20 -86 -74 -78 -19 3 -63 7 -97 8 -52 3 -62 0 -59 -12 33 -117 18 -220 -39 -277 -39 -39 -70 -42 -135 -12 -45 20 -90 56 -90 71 0 4 15 8 34 8 19 0 38 5 41 11 10 16 -26 38 -63 39 -48 0 -70 15 -93 65 -38 81 -4 150 85 175 47 13 92 7 139 -17 15 -7 32 -11 37 -8 5 3 12 32 16 65 4 33 11 60 15 60 5 0 9 7 9 15 0 8 5 26 12 40 10 23 16 25 72 24 34 0 77 -6 96 -13z m1023 -11 c-80 -34 -6 -134 120 -161 34 -7 86 -13 115 -14 34 0 53 -4 54 -12 0 -7 2 -26 3 -43 1 -16 5 -39 10 -50 7 -17 6 -18 -6 -8 -12 9 -14 5 -16 -25 -2 -29 -11 -44 -50 -78 -52 -46 -55 -48 -112 -111 -46 -52 -84 -57 -136 -17 -46 34 -59 79 -52 176 7 99 -1 108 -88 108 -54 0 -68 4 -94 26 -40 33 -49 81 -26 140 27 72 56 84 195 84 108 -1 113 -2 83 -15z m327 -195 c0 -5 -4 -10 -9 -10 -6 0 -13 5 -16 10 -3 6 1 10 9 10 9 0 16 -4 16 -10z m0 -24 c0 -3 -4 -8 -10 -11 -5 -3 -10 -1 -10 4 0 6 5 11 10 11 6 0 10 -2 10 -4z m-1430 -43 c0 -5 -5 -15 -10 -23 -8 -12 -10 -11 -10 8 0 12 5 22 10 22 6 0 10 -3 10 -7z m335 -3833 c46 -23 71 -25 105 -5 38 22 89 19 110 -7 l17 -22 32 27 c25 21 43 27 77 27 56 0 104 -23 104 -50 0 -11 6 -20 13 -20 25 0 37 -21 25 -44 -14 -28 -108 -116 -123 -116 -6 0 -32 19 -56 42 -42 40 -47 42 -117 46 -49 3 -93 -1 -137 -13 -65 -18 -69 -21 -65 -62 2 -30 -6 -29 -65 10 -61 40 -110 106 -100 136 9 28 74 63 130 70 6 0 28 -8 50 -19z m-1208 -552 c-3 -7 -5 -2 -5 12 0 14 2 19 5 13 2 -7 2 -19 0 -25z" fill="#b8dff5"/>
<path d="M4735 7120 c-51 -21 -85 -91 -85 -176 0 -92 46 -141 121 -131 48 6 63 18 96 74 50 86 33 166 -47 221 -35 23 -52 26 -85 12z" fill="#b8dff5"/>
<path d="M5115 7116 c-79 -34 -114 -130 -77 -210 24 -50 74 -96 105 -96 47 0 92 20 108 47 22 40 24 131 4 181 -18 45 -66 92 -93 92 -9 -1 -31 -7 -47 -14z" fill="#b8dff5"/>
<path d="M5860 6970 c0 -40 3 -48 15 -44 10 4 15 20 15 50 0 32 -4 44 -15 44 -11 0 -15 -12 -15 -50z" fill="#b8dff5"/>
<path d="M4381 6834 c0 -11 3 -14 6 -6 3 7 2 16 -1 19 -3 4 -6 -2 -5 -13z" fill="#b8dff5"/>
<path d="M4823 6543 c-19 -48 -9 -69 75 -158 l64 -67 28 33 c16 19 47 54 69 77 49 52 60 86 40 121 -14 26 -17 26 -138 28 l-122 2 -16 -36z" fill="#b8dff5"/>
<path d="M5960 4783 c-14 -2 -59 -17 -100 -34 -314 -124 -436 -538 -245 -828 155 -235 472 -318 719 -189 86 46 117 70 168 136 96 124 138 241 138 382 0 128 -58 267 -153 367 -58 61 -188 141 -261 160 -46 12 -208 16 -266 6z" fill="#b8dff5"/>
<path d="M4875 3903 c-64 -10 -91 -56 -75 -124 15 -60 6 -74 -51 -83 -77 -12 -159 51 -159 124 0 10 -11 31 -24 47 -21 24 -27 26 -48 16 -38 -17 -61 -76 -53 -131 17 -111 91 -192 198 -214 98 -21 170 13 247 117 33 45 46 55 70 55 27 0 33 -7 64 -69 28 -54 43 -72 73 -87 47 -23 162 -25 213 -5 85 34 150 138 150 239 0 61 -8 71 -60 83 -54 12 -70 0 -70 -55 0 -86 -65 -140 -140 -117 -49 15 -70 51 -70 120 0 69 -20 81 -142 86 -51 2 -106 1 -123 -2z" fill="#b8dff5"/>
<path d="M7392 3874 c10 -10 20 -16 22 -13 3 3 -5 11 -17 18 -21 13 -21 12 -5 -5z" fill="#b8dff5"/>
<path d="M3524 3592 c-28 -9 -62 -24 -75 -33 -20 -14 -22 -19 -11 -32 25 -30 105 -59 177 -64 59 -5 78 -2 112 15 75 39 59 87 -38 116 -66 20 -100 19 -165 -2z m209 -54 c15 -7 27 -16 27 -19 0 -12 -72 -39 -104 -39 -50 0 -141 19 -144 30 -2 6 -8 8 -12 5 -5 -3 -14 4 -20 15 -10 20 -8 20 108 20 73 0 128 -5 145 -12z" fill="#b8dff5"/>
<path d="M4746 2893 c-6 -14 -5 -15 5 -6 7 7 10 15 7 18 -3 3 -9 -2 -12 -12z" fill="#b8dff5"/>
<path d="M6248 438 c-3 -59 -5 -64 -33 -77 -48 -24 -222 -27 -322 -6 -97 21 -144 48 -158 93 l-11 32 -39 -21 c-85 -45 -125 -109 -111 -181 12 -65 86 -108 241 -138 33 -7 78 -16 100 -21 69 -14 286 -10 371 7 87 18 188 64 198 89 11 31 6 100 -10 123 -18 26 -197 162 -212 162 -6 0 -12 -27 -14 -62z" fill="#b8dff5"/>
<path d="M3550 445 c-120 -72 -165 -140 -137 -208 36 -86 161 -127 381 -127 78 1 161 5 186 10 25 6 69 14 99 20 206 37 285 113 232 224 -21 42 -44 63 -100 93 -34 19 -41 16 -52 -17 -30 -85 -284 -140 -437 -95 -59 18 -72 35 -72 99 0 30 -4 46 -12 46 -7 0 -47 -20 -88 -45z" fill="#b8dff5"/>
</g>
</svg>